<?xml version="1.0" standalone="no"?>
<!DOCTYPE svg PUBLIC "-//W3C//DTD SVG 20010904//EN"
 "http://www.w3.org/TR/2001/REC-SVG-20010904/DTD/svg10.dtd">
<svg version="1.0" xmlns="http://www.w3.org/2000/svg"
 width="1312.000000pt" height="755.000000pt" viewBox="0 0 1312.000000 755.000000"
 preserveAspectRatio="xMidYMid meet">
<metadata>
Created by potrace 1.15, written by Peter Selinger 2001-2017
</metadata>
<g transform="translate(0.000000,755.000000) scale(0.100000,-0.100000)"
fill="#000000" stroke="none">
<path d="M6630 4830 l0 -1050 -295 0 -295 0 0 -1050 0 -1050 315 0 315 0 0
1045 0 1045 295 0 295 0 0 1055 0 1055 -315 0 -315 0 0 -1050z"/>
<path d="M0 5560 l0 -290 375 0 375 0 0 -1815 0 -1815 315 0 315 0 0 1815 0
1815 380 0 380 0 0 290 0 290 -1070 0 -1070 0 0 -290z"/>
<path d="M2444 5826 c3 -13 10 -56 16 -97 6 -41 17 -110 24 -154 8 -44 22
-129 31 -190 9 -60 25 -162 35 -225 10 -63 28 -173 39 -245 11 -71 30 -188 41
-260 12 -71 28 -173 36 -225 8 -52 21 -135 29 -185 8 -49 23 -151 35 -225 12
-74 30 -187 40 -250 10 -63 26 -160 34 -215 23 -145 54 -342 76 -480 10 -66
35 -223 55 -350 19 -126 44 -282 55 -345 10 -63 25 -160 34 -215 21 -140 55
-356 70 -445 l12 -75 270 -3 271 -2 11 52 c6 29 14 71 17 93 3 22 12 72 19
110 14 69 32 164 81 440 14 77 28 147 30 155 3 8 9 44 14 80 9 59 39 227 90
500 11 58 29 157 41 220 11 63 27 149 35 190 7 41 21 118 31 170 9 52 20 98
23 102 4 5 19 -63 34 -150 16 -86 36 -202 47 -257 10 -55 35 -192 55 -305 20
-113 45 -250 55 -305 10 -55 35 -192 55 -305 20 -113 45 -250 55 -305 10 -55
26 -143 35 -195 25 -141 46 -253 51 -272 5 -17 26 -18 269 -18 242 0 264 1
269 18 3 9 10 46 15 82 6 36 26 162 45 280 59 366 106 660 127 790 10 69 28
177 39 240 11 63 35 216 55 340 19 124 45 281 56 350 11 69 27 168 35 220 8
52 24 147 34 210 35 216 59 365 74 460 8 52 24 151 35 220 12 69 37 224 56
345 54 336 74 462 90 556 8 48 15 90 15 93 0 3 -137 6 -303 6 l-304 0 -27
-172 c-15 -95 -36 -222 -46 -283 -11 -60 -36 -209 -55 -330 -20 -121 -44 -272
-55 -335 -52 -306 -82 -490 -90 -545 -5 -33 -25 -154 -44 -270 -20 -115 -36
-221 -37 -235 -1 -23 -2 -23 -10 5 -4 17 -18 86 -29 155 -12 69 -28 159 -35
200 -7 41 -23 131 -35 200 -12 69 -30 172 -41 230 -10 58 -34 195 -53 305 -20
110 -52 292 -71 405 -33 187 -46 262 -90 505 -7 44 -17 99 -20 123 l-7 42
-247 0 -247 0 -28 -162 c-15 -90 -31 -181 -36 -203 -5 -22 -19 -94 -30 -160
-12 -66 -28 -156 -36 -200 -8 -44 -21 -116 -29 -160 -24 -137 -84 -466 -99
-545 -8 -41 -24 -129 -36 -195 -12 -66 -30 -167 -41 -225 -11 -58 -26 -143
-35 -190 -31 -166 -29 -163 -38 -95 -4 33 -23 157 -42 275 -19 118 -37 233
-40 255 -3 22 -12 76 -19 120 -8 44 -21 123 -29 175 -8 52 -24 151 -35 220
-11 69 -36 226 -56 350 -19 124 -44 281 -55 350 -30 183 -48 299 -55 348 l-7
42 -305 0 -305 0 6 -24z"/>
<path d="M7960 3745 l0 -2105 305 0 305 0 0 985 0 985 285 0 c250 0 285 -2
285 -15 0 -14 20 -88 95 -345 13 -47 47 -168 76 -270 28 -102 66 -237 84 -300
38 -134 209 -741 258 -915 l34 -120 317 -3 c249 -2 316 0 316 10 0 7 -14 60
-31 118 -17 58 -37 125 -44 150 -7 25 -26 90 -43 145 -16 55 -49 165 -72 245
-23 80 -48 165 -56 190 -8 25 -29 97 -48 160 -62 211 -115 394 -147 500 -17
58 -37 125 -44 150 -20 73 -105 364 -110 378 -3 8 13 21 42 33 237 101 437
371 526 709 19 75 22 110 22 300 0 189 -3 226 -22 305 -65 261 -195 460 -403
615 -70 53 -217 125 -306 150 -160 47 -223 50 -944 50 l-680 0 0 -2105z m1426
1473 c175 -68 269 -168 314 -331 35 -126 22 -264 -35 -377 -39 -78 -134 -172
-217 -215 -113 -60 -150 -64 -535 -65 l-343 0 0 508 0 507 387 -5 c323 -5 395
-9 429 -22z"/>
<path d="M10970 3745 l0 -2105 1075 0 1075 0 0 300 0 300 -765 0 -765 0 0 685
0 685 435 0 435 0 0 295 0 295 -435 0 -435 0 0 520 0 520 685 0 685 0 0 305 0
305 -995 0 -995 0 0 -2105z"/>
</g>
</svg>
